<svg width="291" height="161" viewBox="0 0 291 161" fill="none" xmlns="http://www.w3.org/2000/svg">
<path d="M35.9047 274.879C44.9318 314.228 39.9639 339.488 52.6008 341.674C60.5085 343.041 66.2912 333.811 90.3816 320.217C90.3816 320.217 110.441 308.883 135.14 300.847C190.766 282.752 230.375 306.744 244.852 290.377C252.444 281.796 248.86 266.96 243.601 259.176C238.662 251.872 233.435 250.518 218.584 237.19C214.807 233.757 211.462 229.995 208.593 225.953C204.403 220.163 198.243 211.444 196.454 198.459C195.764 193.472 193.768 179.024 202.702 164.755C207.656 156.834 214.694 151.024 233.229 140.431C279.942 113.729 309.045 111.12 316.618 91.7485C318.175 87.7645 318.167 84.7591 318.155 80.9511C318.08 56.1955 293.56 40.8783 274.038 28.682C262.198 21.2837 245.4 10.8455 218.706 5.17515C204.145 2.08964 178.542 -3.33654 147.893 4.98529C125.358 11.1042 110.597 21.8055 97.2996 31.6375C58.3168 60.4636 63.5865 75.8023 32.5706 100.997C-8.48568 134.355 -46.6679 130.999 -50.0145 148.701C-52.9221 164.083 -24.0421 166.345 2.77124 198.547C24.3709 224.483 31.0057 253.474 35.9047 274.879Z" fill="url(#paint0_linear)"/>
<path d="M35.9047 274.879C44.9318 314.228 39.9639 339.488 52.6008 341.674C60.5085 343.041 66.2912 333.811 90.3816 320.217C90.3816 320.217 110.441 308.883 135.14 300.847C190.766 282.752 230.375 306.744 244.852 290.377C252.444 281.796 248.86 266.96 243.601 259.176C238.662 251.872 233.435 250.518 218.584 237.19C214.807 233.757 211.462 229.995 208.593 225.953C204.403 220.163 198.243 211.444 196.454 198.459C195.764 193.472 193.768 179.024 202.702 164.755C207.656 156.834 214.694 151.024 233.229 140.431C279.942 113.729 309.045 111.12 316.618 91.7485C318.175 87.7645 318.167 84.7591 318.155 80.9511C318.08 56.1955 293.56 40.8783 274.038 28.682C262.198 21.2837 245.4 10.8455 218.706 5.17515C204.145 2.08964 178.542 -3.33654 147.893 4.98529C125.358 11.1042 110.597 21.8055 97.2996 31.6375C58.3168 60.4636 63.5865 75.8023 32.5706 100.997C-8.48568 134.355 -46.6679 130.999 -50.0145 148.701C-52.9221 164.083 -24.0421 166.345 2.77124 198.547C24.3709 224.483 31.0057 253.474 35.9047 274.879Z" fill="url(#paint1_linear)" fill-opacity="0.4" style="mix-blend-mode:soft-light"/>
<defs>
<linearGradient id="paint0_linear" x1="375.947" y1="-58.7408" x2="-144.966" y2="509.023" gradientUnits="userSpaceOnUse">
<stop offset="0.177083" stop-color="#A53DC3"/>
<stop offset="0.924026" stop-color="#D68EE9"/>
</linearGradient>
<linearGradient id="paint1_linear" x1="352.456" y1="-52.1769" x2="-165.47" y2="20.7292" gradientUnits="userSpaceOnUse">
<stop/>
<stop offset="1" stop-color="white"/>
</linearGradient>
</defs>
</svg>
