<svg width="291" height="155" viewBox="0 0 291 155" fill="none" xmlns="http://www.w3.org/2000/svg">
<path d="M328.695 84.9935C328.922 105.214 304.142 121.701 297.931 125.829C275.53 140.723 249.906 140.194 236.88 139.927C217.096 139.517 212.054 134.975 191.372 136.429C179.056 137.321 166.922 139.883 155.303 144.043C107.254 160.759 104.122 192.87 69.1443 201.395C37.4972 209.098 1.93201 192.061 0.94139 179.15C-0.108387 165.774 36.381 162.95 55.0967 128.39C59.8098 119.687 69.4665 101.843 63.1493 85.6155C53.2945 60.3009 11.3356 56.4096 12.1139 38.0801C12.1994 36.1087 12.7353 34.8123 13.6358 32.6425C23.7139 8.31287 68.3661 4.51068 98.3257 1.95273C115.198 0.511424 125.701 -0.383966 143.688 1.03781C212.989 6.61019 328.178 41.6559 328.695 84.9935Z" fill="url(#paint0_radial)"/>
<defs>
<radialGradient id="paint0_radial" cx="0" cy="0" r="1" gradientUnits="userSpaceOnUse" gradientTransform="translate(158.614 114.975) rotate(-77.288) scale(111.5 110.048)">
<stop stop-color="#598DF5"/>
<stop offset="1" stop-color="#79A4FB"/>
</radialGradient>
</defs>
</svg>
