<svg width="260" height="145" viewBox="0 0 260 145" fill="none" xmlns="http://www.w3.org/2000/svg">
<path d="M225.468 335.074C231.386 329.614 233.034 326.116 243.485 314.936C249.533 308.468 254.001 304.273 260.928 297.761C265.249 293.703 284.183 275.931 303.327 260.919C308.572 256.81 313.287 251.997 318.454 247.783C320.406 246.193 324.01 243.299 327.486 238.344C328.763 236.497 329.937 234.561 331.004 232.544C334.234 226.666 335.849 223.726 336.325 220.428C336.937 216.189 336.448 208.518 332.053 203.854C327.068 198.564 321.699 202.18 314.201 197.646C306.762 193.151 303.251 184.592 301.266 179.746C297.901 171.535 296.311 161.629 301.22 133.946C302.8 125.04 308.186 96.6479 311.721 72.1433C312.302 68.1269 313.697 57.9987 310.658 56.08C308.665 54.823 306.12 57.5556 303.46 59.0245C289.513 66.7198 279.377 46.8455 273.5 42.0749C254.703 26.8076 276.5 15.8838 257 8.06127C232.688 -1.69167 201.197 -2.10282 177.5 8.06127C147 21.1434 146.5 26.3763 115.5 41.0282C90.1124 53.0276 66.3312 60.2289 43.9996 65.6226C24.5002 70.3321 0.883295 88.2279 0.499756 119.521C0.167023 146.311 45.7601 150.082 42.7277 174.836C40.0715 196.467 25.4275 204.691 30.5787 214.082C34.854 221.874 46.1306 218.403 60.975 226.057C78.2331 234.957 88.7704 250.683 97.8667 265.494C121.378 303.773 165.316 355.453 196.206 351.227C209.732 349.376 223.953 336.473 225.468 335.074Z" fill="url(#paint0_linear)"/>
<path d="M225.468 335.074C231.386 329.614 233.034 326.116 243.485 314.936C249.533 308.468 254.001 304.273 260.928 297.761C265.249 293.703 284.183 275.931 303.327 260.919C308.572 256.81 313.287 251.997 318.454 247.783C320.406 246.193 324.01 243.299 327.486 238.344C328.763 236.497 329.937 234.561 331.004 232.544C334.234 226.666 335.849 223.726 336.325 220.428C336.937 216.189 336.448 208.518 332.053 203.854C327.068 198.564 321.699 202.18 314.201 197.646C306.762 193.151 303.251 184.592 301.266 179.746C297.901 171.535 296.311 161.629 301.22 133.946C302.8 125.04 308.186 96.6479 311.721 72.1433C312.302 68.1269 313.697 57.9987 310.658 56.08C308.665 54.823 306.12 57.5556 303.46 59.0245C289.513 66.7198 279.377 46.8455 273.5 42.0749C254.703 26.8076 276.5 15.8838 257 8.06127C232.688 -1.69167 201.197 -2.10282 177.5 8.06127C147 21.1434 146.5 26.3763 115.5 41.0282C90.1124 53.0276 66.3312 60.2289 43.9996 65.6226C24.5002 70.3321 0.883295 88.2279 0.499756 119.521C0.167023 146.311 45.7601 150.082 42.7277 174.836C40.0715 196.467 25.4275 204.691 30.5787 214.082C34.854 221.874 46.1306 218.403 60.975 226.057C78.2331 234.957 88.7704 250.683 97.8667 265.494C121.378 303.773 165.316 355.453 196.206 351.227C209.732 349.376 223.953 336.473 225.468 335.074Z" fill="url(#paint1_linear)" fill-opacity="0.4" style="mix-blend-mode:soft-light"/>
<defs>
<linearGradient id="paint0_linear" x1="-2.42357" y1="544.419" x2="486.328" y2="80.8393" gradientUnits="userSpaceOnUse">
<stop offset="0.161736" stop-color="#F2AEAE"/>
<stop offset="0.84375" stop-color="#E4409B"/>
</linearGradient>
<linearGradient id="paint1_linear" x1="319.506" y1="-73.0005" x2="70.5515" y2="387.212" gradientUnits="userSpaceOnUse">
<stop offset="0.0351536"/>
<stop offset="1" stop-color="white"/>
<stop offset="1" stop-color="white"/>
</linearGradient>
</defs>
</svg>
