<svg width="262" height="170" viewBox="0 0 262 170" fill="none" xmlns="http://www.w3.org/2000/svg">
<path d="M286.652 168.078C313.357 145.374 334.809 139.092 331.436 128.48C329.324 121.84 319.898 121.078 299.782 107.957C299.782 107.957 283.021 97.0376 266.944 81.2228C230.738 45.6044 233.371 5.48238 214.967 0.878313C205.316 -1.53714 195.319 7.16307 191.426 14.3306C187.775 21.0588 188.824 25.6286 184.499 42.405C183.365 46.6895 181.805 50.7732 179.839 54.6014C177.055 60.147 172.802 68.3829 163.513 74.9579C159.947 77.4855 149.613 84.8063 135.042 83.6333C126.957 82.9866 119.663 79.8888 104.083 69.8472C64.8127 44.5413 51.1547 23.1614 33.1981 25.0796C29.505 25.4739 27.1927 26.6833 24.2632 28.2162C5.21883 38.1822 3.23051 63.2057 1.64622 83.1285C0.684703 95.2129 -0.635345 112.333 5.67945 135.171C9.12965 147.625 15.1958 169.524 33.8747 189.809C47.6084 204.723 61.7618 211.814 74.6595 218.125C112.472 236.624 122.182 226.425 154.008 240.239C196.143 258.523 208.838 289.286 223.817 284.78C236.834 280.863 227.018 257.706 241.099 224.158C252.437 197.135 272.12 180.419 286.652 168.078Z" fill="url(#paint0_linear)"/>
<path d="M286.652 168.078C313.357 145.374 334.809 139.092 331.436 128.48C329.324 121.84 319.898 121.078 299.782 107.957C299.782 107.957 283.021 97.0376 266.944 81.2228C230.738 45.6044 233.371 5.48238 214.967 0.878313C205.316 -1.53714 195.319 7.16307 191.426 14.3306C187.775 21.0588 188.824 25.6286 184.499 42.405C183.365 46.6895 181.805 50.7732 179.839 54.6014C177.055 60.147 172.802 68.3829 163.513 74.9579C159.947 77.4855 149.613 84.8063 135.042 83.6333C126.957 82.9866 119.663 79.8888 104.083 69.8472C64.8127 44.5413 51.1547 23.1614 33.1981 25.0796C29.505 25.4739 27.1927 26.6833 24.2632 28.2162C5.21883 38.1822 3.23051 63.2057 1.64622 83.1285C0.684703 95.2129 -0.635345 112.333 5.67945 135.171C9.12965 147.625 15.1958 169.524 33.8747 189.809C47.6084 204.723 61.7618 211.814 74.6595 218.125C112.472 236.624 122.182 226.425 154.008 240.239C196.143 258.523 208.838 289.286 223.817 284.78C236.834 280.863 227.018 257.706 241.099 224.158C252.437 197.135 272.12 180.419 286.652 168.078Z" fill="url(#paint1_linear)" fill-opacity="0.4" style="mix-blend-mode:soft-light"/>
<defs>
<linearGradient id="paint0_linear" x1="-22.8405" y1="46.1429" x2="388.79" y2="166.845" gradientUnits="userSpaceOnUse">
<stop stop-color="#6ACCDC"/>
<stop offset="1" stop-color="#6ADCB3"/>
</linearGradient>
<linearGradient id="paint1_linear" x1="-9.72104" y1="-57.5321" x2="365.53" y2="55.8735" gradientUnits="userSpaceOnUse">
<stop/>
<stop offset="1" stop-color="white"/>
</linearGradient>
</defs>
</svg>
