<svg width="272" height="158" viewBox="0 0 272 158" fill="none" xmlns="http://www.w3.org/2000/svg">
<path d="M293.203 114.79C281.982 130.377 265.372 135.287 248.519 140.011C195.608 154.845 177.058 132.472 147.48 149.396C122.597 163.634 127.109 184.397 101.705 192.443C77.742 200.031 48.8871 189.423 46.4411 177.753C44.7744 169.777 56.1079 164.456 58.1948 145.111C58.8333 139.189 59.23 135.512 57.784 131.64C50.636 112.565 10.7457 121.47 1.9028 106.557C-7.98938 89.8668 21.9055 44.9764 63.3498 20.6662C121.332 -13.3477 184.913 2.91481 218.413 11.4851C250.686 19.7371 289.344 29.6335 300.689 60.649C306.818 77.4225 304.502 99.0781 293.203 114.79Z" fill="url(#paint0_linear)"/>
<path d="M293.203 114.79C281.982 130.377 265.372 135.287 248.519 140.011C195.608 154.845 177.058 132.472 147.48 149.396C122.597 163.634 127.109 184.397 101.705 192.443C77.742 200.031 48.8871 189.423 46.4411 177.753C44.7744 169.777 56.1079 164.456 58.1948 145.111C58.8333 139.189 59.23 135.512 57.784 131.64C50.636 112.565 10.7457 121.47 1.9028 106.557C-7.98938 89.8668 21.9055 44.9764 63.3498 20.6662C121.332 -13.3477 184.913 2.91481 218.413 11.4851C250.686 19.7371 289.344 29.6335 300.689 60.649C306.818 77.4225 304.502 99.0781 293.203 114.79Z" fill="url(#paint1_linear)" fill-opacity="0.4" style="mix-blend-mode:soft-light"/>
<defs>
<linearGradient id="paint0_linear" x1="238.64" y1="205.725" x2="155.009" y2="-66.884" gradientUnits="userSpaceOnUse">
<stop stop-color="#6ACCDC"/>
<stop offset="1" stop-color="#6ADCB3"/>
</linearGradient>
<linearGradient id="paint1_linear" x1="145.92" y1="245.7" x2="71.0476" y2="-3.02068" gradientUnits="userSpaceOnUse">
<stop/>
<stop offset="1" stop-color="white"/>
</linearGradient>
</defs>
</svg>
